<svg xmlns="http://www.w3.org/2000/svg" xmlns:xlink="http://www.w3.org/1999/xlink" style="min-width:100px;min-height:100px;" version="1.1" id="vww_label_1" x="0px" y="0px" viewBox="0 0 124.4 63.5" xml:space="preserve"> <g id="back"> <path fill="#FFFFFF" stroke="rgba(255,255,255,0)" style="stroke-opacity: 0;" d="M6,0.2h112.5c3.2,0,5.8,2.6,5.8,5.8v51.6c0,3.2-2.6,5.8-5.8,5.8H6c-3.2,0-5.8-2.6-5.8-5.8V6 C0.2,2.8,2.8,0.2,6,0.2z"/> <path fill="#1D1D1B" stroke="rgba(255,255,255,0)" style="stroke-opacity: 0;" d="M118,63.5H6c-3.3,0-6-2.7-6-6V6c0-3.3,2.7-6,6-6h112c3.3,0,6,2.7,6,6v51.5C124,60.8,121.3,63.5,118,63.5z M6,0.4C2.9,0.4,0.4,2.9,0.4,6c0,0,0,0,0,0v51.5c0,3.1,2.5,5.6,5.6,5.6c0,0,0,0,0,0h112c3.1,0,5.5-2.5,5.5-5.6V6 c0-3.1-2.5-5.6-5.5-5.6c0,0,0,0,0,0H6z"/> </g> <g class="dit_is_een"> <path fill="#000" stroke="rgba(255,255,255,0)" style="stroke-opacity: 0;" d="M60.8,29.12V37.4c0,.61,0,1.3.06,1.77H59.74L59.69,38h0a2.53,2.53,0,0,1-2.33,1.34c-1.66,0-2.93-1.4-2.93-3.48,0-2.28,1.4-3.68,3.07-3.68a2.29,2.29,0,0,1,2.06,1h0V29.12Zm-1.25,6a2.17,2.17,0,0,0-.06-.52,1.83,1.83,0,0,0-1.8-1.44c-1.29,0-2.05,1.13-2.05,2.65s.68,2.53,2,2.53a1.87,1.87,0,0,0,1.82-1.49,2.14,2.14,0,0,0,.06-.54Z"/> <path fill="#000" stroke="rgba(255,255,255,0)" style="stroke-opacity: 0;" d="M64.25,30.39a.77.77,0,0,1-1.54,0,.76.76,0,0,1,.78-.78A.74.74,0,0,1,64.25,30.39Zm-1.39,8.77V32.32h1.25v6.85Z"/> <path fill="#000" stroke="rgba(255,255,255,0)" style="stroke-opacity: 0;" d="M67.67,30.35v2h1.78v.95H67.67V37c0,.85.24,1.33.93,1.33a2.76,2.76,0,0,0,.72-.08l.06.93a3,3,0,0,1-1.1.17,1.72,1.72,0,0,1-1.34-.52A2.53,2.53,0,0,1,66.46,37V33.27H65.4v-.95h1.06V30.68Z"/><path class="cls-2" d="M75.24,30.39a.77.77,0,0,1-1.54,0,.76.76,0,0,1,.78-.78A.74.74,0,0,1,75.24,30.39Zm-1.39,8.77V32.32H75.1v6.85Z"/> <path fill="#000" stroke="rgba(255,255,255,0)" style="stroke-opacity: 0;" d="M77,37.89a3.26,3.26,0,0,0,1.64.5c.91,0,1.33-.45,1.33-1s-.35-.92-1.27-1.26c-1.23-.44-1.81-1.12-1.81-1.94a2.11,2.11,0,0,1,2.36-2,3.41,3.41,0,0,1,1.68.42l-.31.91a2.67,2.67,0,0,0-1.4-.4c-.74,0-1.15.42-1.15.93s.41.82,1.3,1.16c1.19.45,1.8,1,1.8,2.06,0,1.2-.93,2.05-2.56,2.05a3.9,3.9,0,0,1-1.92-.47Z"/> <path fill="#000" stroke="rgba(255,255,255,0)" style="stroke-opacity: 0;" d="M86.45,36a2.19,2.19,0,0,0,2.35,2.38A4.5,4.5,0,0,0,90.7,38l.21.89a5.55,5.55,0,0,1-2.28.42,3.18,3.18,0,0,1-3.37-3.45c0-2.06,1.22-3.69,3.21-3.69,2.24,0,2.83,2,2.83,3.23a4.81,4.81,0,0,1,0,.58Zm3.65-.89a1.77,1.77,0,0,0-1.73-2,2.06,2.06,0,0,0-1.91,2Z"/> <path fill="#000" stroke="rgba(255,255,255,0)" style="stroke-opacity: 0;" d="M93.54,36a2.19,2.19,0,0,0,2.35,2.38,4.5,4.5,0,0,0,1.9-.35l.21.89a5.55,5.55,0,0,1-2.28.42,3.18,3.18,0,0,1-3.37-3.45c0-2.06,1.22-3.69,3.21-3.69,2.24,0,2.83,2,2.83,3.23a4.81,4.81,0,0,1,0,.58Zm3.65-.89a1.77,1.77,0,0,0-1.73-2,2.06,2.06,0,0,0-1.91,2Z"/> <path fill="#000" stroke="rgba(255,255,255,0)" style="stroke-opacity: 0;" d="M99.93,34.17c0-.71,0-1.29-.06-1.85H101l.07,1.13h0a2.52,2.52,0,0,1,2.26-1.29c.95,0,2.42.57,2.42,2.91v4.09h-1.25V35.22c0-1.1-.41-2-1.58-2a1.77,1.77,0,0,0-1.67,1.27,1.79,1.79,0,0,0-.08.58v4.12H99.93Z"/> </g> <g id="stars"> <path stroke="rgba(255,255,255,0)" style="stroke-opacity: 0;" fill="#cccccc" d="M59.28,18.56c.23-1.45.41-2.71.63-4a1.55,1.55,0,0,0-.45-1.56c-.91-.88-1.76-1.84-2.76-2.91,1.25-.21,2.33-.45,3.43-.57a2,2,0,0,0,1.81-1.3c.43-1.07,1-2.07,1.62-3.27.62,1.27,1.22,2.35,1.7,3.49a1.59,1.59,0,0,0,1.41,1.06c1.18.16,2.34.38,3.73.61-.8.86-1.44,1.66-2.2,2.33a2.52,2.52,0,0,0-.93,2.81,28,28,0,0,1,.46,3.27c-1.26-.66-2.38-1.22-3.48-1.83a1.24,1.24,0,0,0-1.36,0C61.76,17.31,60.61,17.87,59.28,18.56Z"/> <path stroke="rgba(255,255,255,0)" style="stroke-opacity: 0;" fill="#cccccc" d="M74.43,18.56c.23-1.45.41-2.71.63-4a1.55,1.55,0,0,0-.45-1.56c-.91-.88-1.76-1.84-2.76-2.91,1.25-.21,2.33-.45,3.43-.57a2,2,0,0,0,1.81-1.3c.43-1.07,1-2.07,1.62-3.27.62,1.27,1.22,2.35,1.7,3.49a1.59,1.59,0,0,0,1.41,1.06c1.18.16,2.34.38,3.73.61-.8.86-1.44,1.66-2.2,2.33a2.52,2.52,0,0,0-.93,2.81,28,28,0,0,1,.46,3.27c-1.26-.66-2.38-1.22-3.48-1.83a1.24,1.24,0,0,0-1.36,0C76.92,17.31,75.77,17.87,74.43,18.56Z"/> <path stroke="rgba(255,255,255,0)" style="stroke-opacity: 0;" fill="#cccccc" d="M89.52,18.56c.23-1.45.41-2.71.63-4a1.55,1.55,0,0,0-.45-1.56c-.91-.88-1.76-1.84-2.76-2.91,1.25-.21,2.33-.45,3.43-.57a2,2,0,0,0,1.81-1.3c.43-1.07,1-2.07,1.62-3.27.62,1.27,1.22,2.35,1.7,3.49a1.59,1.59,0,0,0,1.41,1.06c1.18.16,2.34.38,3.73.61-.8.86-1.44,1.66-2.2,2.33a2.52,2.52,0,0,0-.93,2.81,28,28,0,0,1,.46,3.27c-1.26-.66-2.38-1.22-3.48-1.83a1.24,1.24,0,0,0-1.36,0C92,17.31,90.85,17.87,89.52,18.56Z"/> <path stroke="rgba(255,255,255,0)" style="stroke-opacity: 0;" fill="#cccccc" d="M104.9,18.56c.23-1.45.41-2.71.63-4a1.55,1.55,0,0,0-.45-1.56c-.91-.88-1.76-1.84-2.76-2.91,1.25-.21,2.33-.45,3.43-.57a2,2,0,0,0,1.81-1.3c.43-1.07,1-2.07,1.62-3.27.62,1.27,1.22,2.35,1.7,3.49a1.59,1.59,0,0,0,1.41,1.06c1.18.16,2.34.38,3.73.61-.8.86-1.44,1.66-2.2,2.33a2.52,2.52,0,0,0-.93,2.81,28,28,0,0,1,.46,3.27c-1.26-.66-2.38-1.22-3.48-1.83a1.24,1.24,0,0,0-1.36,0C107.38,17.31,106.24,17.87,104.9,18.56Z"/> </g> <g id="vlaamsewebwinkeltekst"> <path fill="#1D1D1B" stroke="rgba(255,255,255,0)" style="stroke-opacity: 0;" d="M10.4,57.4l-2.9-8.9h1.2l1.4,4.4c0.4,1.2,0.7,2.3,1,3.3l0,0c0.2-1,0.6-2.2,1-3.3l1.5-4.4h1.2l-3.2,8.9 L10.4,57.4z"/> <path fill="#1D1D1B" stroke="rgba(255,255,255,0)" style="stroke-opacity: 0;" d="M15.7,48h1.2v9.4h-1.2V48z"/> <path fill="#1D1D1B" stroke="rgba(255,255,255,0)" style="stroke-opacity: 0;" d="M22.3,57.4l-0.1-0.8l0,0c-0.5,0.6-1.2,1-2,1c-1,0.1-1.9-0.6-2-1.6c0-0.1,0-0.1,0-0.2c0-1.5,1.4-2.4,3.8-2.4 v-0.1c0.1-0.7-0.4-1.4-1.1-1.5c-0.1,0-0.2,0-0.3,0c-0.6,0-1.2,0.2-1.7,0.5l-0.3-0.8c0.6-0.4,1.4-0.6,2.1-0.6c2,0,2.4,1.3,2.4,2.6 v2.4c0,0.5,0,1,0.1,1.5L22.3,57.4z M22.1,54.1c-1.3,0-2.7,0.2-2.7,1.4c-0.1,0.5,0.3,1,0.9,1.1c0.1,0,0.1,0,0.2,0 c0.7,0,1.3-0.4,1.5-1.1c0-0.1,0.1-0.2,0.1-0.4V54.1z"/> <path fill="#1D1D1B" stroke="rgba(255,255,255,0)" style="stroke-opacity: 0;" d="M28.7,57.4l-0.1-0.8l0,0c-0.5,0.6-1.2,1-2,1c-1,0.1-1.9-0.6-2-1.6c0-0.1,0-0.1,0-0.2c0-1.5,1.4-2.4,3.8-2.4 v-0.1c0.1-0.7-0.4-1.4-1.1-1.5c-0.1,0-0.2,0-0.3,0c-0.6,0-1.2,0.2-1.7,0.5l-0.3-0.8c0.6-0.4,1.4-0.6,2.1-0.6c2,0,2.4,1.3,2.4,2.6 v2.4c0,0.5,0,1,0.1,1.5L28.7,57.4z M28.5,54.1c-1.3,0-2.7,0.2-2.7,1.4c-0.1,0.5,0.3,1,0.9,1.1c0.1,0,0.1,0,0.2,0 c0.7,0,1.3-0.4,1.5-1.1c0-0.1,0.1-0.2,0.1-0.4V54.1z"/> <path fill="#1D1D1B" stroke="rgba(255,255,255,0)" style="stroke-opacity: 0;" d="M31.5,52.7c0-0.7,0-1.2,0-1.7h1l0,1l0,0c0.4-0.7,1.2-1.2,2-1.2c0.8,0,1.5,0.5,1.8,1.3l0,0 c0.2-0.3,0.4-0.6,0.7-0.8c0.4-0.3,0.9-0.5,1.4-0.5c0.8,0,2.1,0.5,2.1,2.8v3.8h-1v-3.6c0-1.2-0.5-2-1.4-2c-0.6,0-1.2,0.5-1.4,1.1 c-0.1,0.2-0.1,0.4-0.1,0.6v4h-1.1v-3.8c0-1-0.5-1.8-1.3-1.8c-0.9,0.1-1.5,0.8-1.5,1.7v3.8h-1.1V52.7z"/> <path fill="#1D1D1B" stroke="rgba(255,255,255,0)" style="stroke-opacity: 0;" d="M42.3,56.2c0.5,0.3,1,0.4,1.5,0.5c0.8,0,1.2-0.4,1.2-1s-0.3-0.9-1.2-1.2c-1.2-0.4-1.7-1-1.7-1.8 c0.1-1.1,1-1.9,2.1-1.9c0,0,0.1,0,0.1,0c0.5,0,1.1,0.1,1.6,0.4L45.7,52c-0.4-0.2-0.8-0.4-1.3-0.4c-0.7,0-1.1,0.4-1.1,0.9 s0.4,0.8,1.2,1.1c1.1,0.4,1.7,1,1.7,1.9c0,1.1-0.9,1.9-2.4,1.9c-0.6,0-1.2-0.1-1.8-0.4L42.3,56.2z"/> <path fill="#1D1D1B" stroke="rgba(255,255,255,0)" style="stroke-opacity: 0;" d="M48.4,54.4c-0.1,1.1,0.7,2.1,1.8,2.2c0.1,0,0.3,0,0.4,0c0.6,0,1.2-0.1,1.8-0.3l0.2,0.8 c-0.7,0.3-1.4,0.4-2.1,0.4c-1.7,0.1-3.1-1.2-3.1-2.8c0-0.1,0-0.2,0-0.4c0-1.9,1.1-3.4,3-3.4c2.1,0,2.6,1.8,2.6,3c0,0.2,0,0.4,0,0.5 L48.4,54.4z M51.8,53.5c0.1-0.9-0.5-1.7-1.4-1.9c-0.1,0-0.1,0-0.2,0c-1,0.1-1.8,0.9-1.8,1.9H51.8z"/> <path fill="#1D1D1B" stroke="rgba(255,255,255,0)" style="stroke-opacity: 0;" d="M55.7,57.4l-2.1-8.9h2.2l0.7,3.7c0.2,1.1,0.4,2.2,0.5,3.1l0,0c0.1-1,0.4-2,0.6-3.1l0.8-3.6h2.1l0.7,3.8 c0.2,1,0.3,2,0.5,3l0,0c0.1-1,0.3-2,0.5-3.1l0.7-3.6h2l-2.3,8.9h-2.1l-0.8-3.8c-0.2-0.9-0.3-1.7-0.4-2.8l0,0 c-0.2,1-0.3,1.8-0.5,2.8l-0.8,3.8L55.7,57.4z"/> <path fill="#1D1D1B" stroke="rgba(255,255,255,0)" style="stroke-opacity: 0;" d="M66.9,54.8c0.1,0.8,0.9,1.2,1.8,1.2c0.6,0,1.2-0.1,1.8-0.3l0.3,1.4c-0.7,0.3-1.5,0.4-2.3,0.4 c-1.7,0.2-3.2-1.1-3.4-2.8c0-0.2,0-0.4,0-0.5c-0.1-1.8,1.2-3.3,3-3.4c0.1,0,0.2,0,0.3,0c2.1,0,2.9,1.6,2.9,3.2c0,0.3,0,0.5-0.1,0.8 L66.9,54.8z M69.3,53.4c0.1-0.6-0.4-1.2-1-1.3c0,0-0.1,0-0.1,0c-0.7,0-1.2,0.6-1.2,1.3H69.3z"/> <path fill="#1D1D1B" stroke="rgba(255,255,255,0)" style="stroke-opacity: 0;" d="M72.3,57.4c0-0.4,0.1-1.2,0.1-1.9V48h2v3.7l0,0c0.5-0.6,1.2-1,2-0.9c1.5,0,2.7,1.2,2.7,3.2 c0,2.3-1.5,3.5-3,3.5c-0.8,0-1.5-0.3-1.9-1l0,0L74,57.4L72.3,57.4z M74.3,54.6c0,0.1,0,0.2,0,0.4c0.1,0.6,0.6,1,1.2,1 c0.9,0,1.4-0.7,1.4-1.8c0-1-0.4-1.8-1.4-1.8c-0.6,0-1.1,0.4-1.2,1c0,0.1,0,0.2,0,0.4V54.6z"/> <path fill="#1D1D1B" stroke="rgba(255,255,255,0)" style="stroke-opacity: 0;" d="M81.7,57.4l-2.1-8.9h2.2l0.7,3.7c0.2,1.1,0.4,2.2,0.5,3.1l0,0c0.1-1,0.4-2,0.6-3.1l0.8-3.6h2.1l0.7,3.8 c0.2,1,0.3,2,0.5,3l0,0c0.1-1,0.3-2,0.5-3.1l0.7-3.6h2l-2.3,8.9h-2.1l-0.8-3.8c-0.2-0.9-0.3-1.7-0.4-2.8l0,0 c-0.2,1-0.3,1.8-0.5,2.8L84,57.4L81.7,57.4z"/> <path fill="#1D1D1B" stroke="rgba(255,255,255,0)" style="stroke-opacity: 0;" d="M93.7,49.1c0,0.6-0.4,1-1,1c0,0-0.1,0-0.1,0c-0.6,0-1-0.4-1-1s0.4-1,1-1C93.1,48.1,93.6,48.5,93.7,49.1 C93.6,49.1,93.7,49.1,93.7,49.1z M91.6,57.4v-6.5h2v6.5L91.6,57.4z"/> <path fill="#1D1D1B" stroke="rgba(255,255,255,0)" style="stroke-opacity: 0;" d="M95.2,53c0-0.8,0-1.5-0.1-2.1h1.7l0.1,0.9l0,0c0.5-0.6,1.2-1,2-1c1.3,0,2.3,0.9,2.3,2.8v3.8h-2v-3.6 c0-0.8-0.3-1.4-1-1.4c-0.5,0-0.9,0.3-1,0.8c-0.1,0.2-0.1,0.3-0.1,0.5v3.7h-2L95.2,53z"/> <path fill="#1D1D1B" stroke="rgba(255,255,255,0)" style="stroke-opacity: 0;" d="M104.9,53.6L104.9,53.6c0.2-0.3,0.3-0.5,0.5-0.8l1.3-1.9h2.4l-2.3,2.6l2.6,3.8H107l-1.6-2.7l-0.5,0.6v2h-2 V48h2V53.6z"/> <path fill="#1D1D1B" stroke="rgba(255,255,255,0)" style="stroke-opacity: 0;" d="M111.4,54.8c0.1,0.8,0.9,1.2,1.8,1.2c0.6,0,1.2-0.1,1.8-0.3l0.3,1.4c-0.7,0.3-1.5,0.4-2.3,0.4 c-1.7,0.2-3.2-1-3.4-2.7c0-0.2,0-0.4,0-0.6c-0.1-1.8,1.2-3.3,3-3.4c0.1,0,0.2,0,0.3,0c2.1,0,2.9,1.6,2.9,3.2c0,0.3,0,0.5-0.1,0.8 L111.4,54.8z M113.8,53.4c0.1-0.6-0.4-1.2-1-1.3c0,0-0.1,0-0.1,0c-0.7,0-1.2,0.6-1.2,1.3H113.8z"/> <path fill="#1D1D1B" stroke="rgba(255,255,255,0)" style="stroke-opacity: 0;" d="M116.9,48h2v9.4h-2V48z"/> </g> <g id="logo_tekst"> <path fill="#1D1D1B" stroke="rgba(255,255,255,0)" style="stroke-opacity: 0;" d="M2.6,15.2l0.6-0.8l1.6,1.1l0,0c-0.1-0.2-0.2-0.4-0.2-0.5l-0.7-1.7l0.7-1l0.8,2.3l3,0.1l-0.7,1l-2.2-0.2 L5.7,16l1.2,0.8l-0.6,0.8L2.6,15.2z"/> <path fill="#1D1D1B" stroke="rgba(255,255,255,0)" style="stroke-opacity: 0;" d="M9,14l-3.9-2.4l0.8-0.8l1.5,1.1c0.4,0.3,0.9,0.6,1.3,0.9l0,0c-0.3-0.4-0.6-0.9-0.9-1.3l-1-1.6l0.8-0.8 l1.6,1.1c0.4,0.3,0.8,0.6,1.2,0.9l0,0c-0.3-0.4-0.6-0.8-0.9-1.3l-1-1.6l0.7-0.7l2.3,4l-0.8,0.8l-1.6-1.1C8.7,11,8.4,10.7,8,10.4 l0,0c0.3,0.4,0.6,0.8,0.8,1.2l1.1,1.7L9,14z"/> <path fill="#1D1D1B" stroke="rgba(255,255,255,0)" style="stroke-opacity: 0;" d="M12.6,9.3l0.4,1.1L12.1,11l-1.3-4.5l1.1-0.7l3.6,3l-0.9,0.6l-0.9-0.8L12.6,9.3z M13.1,8l-0.8-0.6 c-0.2-0.2-0.5-0.4-0.7-0.6l0,0C11.8,7,11.9,7.3,12,7.6l0.3,0.9L13.1,8z"/> <path fill="#1D1D1B" stroke="rgba(255,255,255,0)" style="stroke-opacity: 0;" d="M14,4.5l1-0.4l1.4,3.3l1.6-0.7l0.4,0.8l-2.6,1.1L14,4.5z"/> <path fill="#1D1D1B" stroke="rgba(255,255,255,0)" style="stroke-opacity: 0;" d="M18.5,2.8L19.8,7l-1,0.3l-1.3-4.2L18.5,2.8z"/> <path fill="#1D1D1B" stroke="rgba(255,255,255,0)" style="stroke-opacity: 0;" d="M20.7,3.1l-1.2,0.2l-0.2-0.8l3.4-0.7l0.2,0.8l-1.2,0.2l0.7,3.6l-1,0.2L20.7,3.1z"/> <path fill="#1D1D1B" stroke="rgba(255,255,255,0)" style="stroke-opacity: 0;" d="M26.5,4.1l-1.6,0.1l0,1.1l1.8-0.1V6l-2.9,0.2l-0.2-4.5l2.8-0.1v0.8l-1.7,0.1v0.9l1.6-0.1L26.5,4.1z"/> <path fill="#1D1D1B" stroke="rgba(255,255,255,0)" style="stroke-opacity: 0;" d="M28.6,1.6l-0.3,4.5l-1-0.1l0.3-4.5L28.6,1.6z"/> <path fill="#1D1D1B" stroke="rgba(255,255,255,0)" style="stroke-opacity: 0;" d="M30.6,2.7l-1.2-0.2l0.1-0.8L33,2.3l-0.2,0.8l-1.2-0.2L31,6.5l-1-0.2L30.6,2.7z"/> <path fill="#1D1D1B" stroke="rgba(255,255,255,0)" style="stroke-opacity: 0;" d="M32.8,5.8c0.3,0.3,0.6,0.5,1,0.6c0.4,0.2,0.7,0,0.8-0.2s-0.1-0.5-0.5-0.8c-0.6-0.5-1-1-0.8-1.6s1-1.1,2-0.7 c0.4,0.1,0.7,0.3,1,0.6l-0.5,0.7c-0.2-0.2-0.5-0.4-0.8-0.5c-0.4-0.1-0.7,0-0.8,0.2c-0.1,0.2,0.1,0.5,0.6,0.9c0.7,0.5,0.9,1,0.7,1.6 s-1,1.1-2.2,0.8c-0.4-0.1-0.8-0.4-1.1-0.7L32.8,5.8z"/> <path fill="#1D1D1B" stroke="rgba(255,255,255,0)" style="stroke-opacity: 0;" d="M37.7,3.9l0.9,0.5L37,7.6l1.6,0.8l-0.4,0.8l-2.5-1.3L37.7,3.9z"/> <path fill="#1D1D1B" stroke="rgba(255,255,255,0)" style="stroke-opacity: 0;" d="M40.1,9.1l-0.9,0.8l-0.8-0.6L42,6.4l1.1,0.8l-1.5,4.4L40.7,11l0.4-1.1L40.1,9.1z M41.5,9.1l0.3-0.9 c0.1-0.3,0.2-0.6,0.3-0.8l0,0c-0.2,0.2-0.5,0.4-0.7,0.6l-0.8,0.6L41.5,9.1z"/> <path fill="#1D1D1B" stroke="rgba(255,255,255,0)" style="stroke-opacity: 0;" d="M45,8.8c0.4,0.3,0.7,0.6,1,0.9c0.3,0.3,0.6,0.7,0.7,1.1c0.1,0.4,0,0.7-0.2,1c-0.3,0.3-0.8,0.4-1.2,0.1l0,0 c0.3,0.5,0.2,1-0.2,1.4c-0.3,0.3-0.6,0.4-1,0.3c-0.6-0.2-1.1-0.5-1.5-1c-0.3-0.3-0.5-0.5-0.7-0.8L45,8.8z M43.1,12.1 c0.1,0.1,0.2,0.2,0.3,0.3c0.3,0.3,0.7,0.5,1.1,0.2s0.2-0.7-0.2-1.1L44,11.2L43.1,12.1z M44.5,10.7l0.2,0.2c0.4,0.4,0.7,0.4,1,0.2 s0.2-0.6-0.1-0.9c-0.1-0.1-0.2-0.2-0.3-0.3L44.5,10.7z"/> <path fill="#1D1D1B" stroke="rgba(255,255,255,0)" style="stroke-opacity: 0;" d="M47.6,15.8l-1-1.3L45.7,15l1.1,1.5L46.1,17l-1.7-2.3l3.7-2.6l1.6,2.2L49,14.8l-1-1.4l-0.8,0.5l1,1.3 L47.6,15.8z"/> <path fill="#1D1D1B" stroke="rgba(255,255,255,0)" style="stroke-opacity: 0;" d="M50.4,15.4l0.5,0.9L47.6,18l0.8,1.6L47.7,20l-1.3-2.5L50.4,15.4z"/> </g> <g id="logo"> <path fill="#FFFFFF" stroke="rgba(255,255,255,0)" style="stroke-opacity: 0;" d="M43.7,45.5c4.3-4.3,4.7-11.2,3.4-19.1L24.6,48.9C32.7,50.2,39.4,49.8,43.7,45.5z"/> <path fill="#FEFEFE" stroke="rgba(255,255,255,0)" style="stroke-opacity: 0;" d="M43.7,45.5c4.3-4.3,4.7-11.2,3.5-19L24.6,49C32.7,50.2,39.3,49.8,43.7,45.5z"/> <path fill="#FEFDFD" stroke="rgba(255,255,255,0)" style="stroke-opacity: 0;" d="M43.7,45.4c4.3-4.3,4.8-11.2,3.5-19L24.6,48.9C32.7,50.1,39.3,49.8,43.7,45.4z"/> <path fill="#FDFDFC" stroke="rgba(255,255,255,0)" style="stroke-opacity: 0;" d="M43.6,45.4c4.3-4.3,4.8-11.2,3.5-19L24.6,48.9C32.6,50.1,39.3,49.7,43.6,45.4z"/> <path fill="#FDFCFB" stroke="rgba(255,255,255,0)" style="stroke-opacity: 0;" d="M43.6,45.4c4.3-4.3,4.8-11.1,3.5-19L24.6,48.9C32.6,50.1,39.3,49.7,43.6,45.4z"/> <path fill="#FCFBF9" stroke="rgba(255,255,255,0)" style="stroke-opacity: 0;" d="M43.6,45.4c4.3-4.4,4.8-11.2,3.6-18.9L24.6,48.9C32.6,50.1,39.3,49.7,43.6,45.4z"/> <path fill="#FBFAF8" stroke="rgba(255,255,255,0)" style="stroke-opacity: 0;" d="M43.6,45.3c4.3-4.3,4.8-11.1,3.6-18.9L24.6,48.9C32.6,50.1,39.2,49.7,43.6,45.3z"/> <path fill="#FBF9F7" stroke="rgba(255,255,255,0)" style="stroke-opacity: 0;" d="M43.5,45.3c4.3-4.3,4.8-11.1,3.6-18.9L24.6,48.9C32.6,50.1,39.2,49.6,43.5,45.3z"/> <path fill="#FAF9F6" stroke="rgba(255,255,255,0)" style="stroke-opacity: 0;" d="M43.5,45.3c4.3-4.3,4.8-11.1,3.6-18.9L24.6,48.9C32.5,50.1,39.2,49.6,43.5,45.3z"/> <path fill="#F9F8F5" stroke="rgba(255,255,255,0)" style="stroke-opacity: 0;" d="M43.5,45.3c4.3-4.3,4.9-11.1,3.7-18.8L24.6,48.9C32.5,50.1,39.2,49.6,43.5,45.3z"/> <path fill="#F9F7F4" stroke="rgba(255,255,255,0)" style="stroke-opacity: 0;" d="M43.5,45.2c4.3-4.3,4.9-11.1,3.7-18.8L24.6,48.9C32.5,50.1,39.1,49.6,43.5,45.2z"/> <path fill="#F8F6F2" stroke="rgba(255,255,255,0)" style="stroke-opacity: 0;" d="M43.4,45.2c4.3-4.3,4.9-11.1,3.7-18.8L24.6,48.9C32.5,50.1,39.1,49.5,43.4,45.2z"/> <path fill="#F7F5F1" stroke="rgba(255,255,255,0)" style="stroke-opacity: 0;" d="M43.4,45.2c4.3-4.3,4.9-11.1,3.7-18.8L24.6,48.9C32.5,50.1,39.1,49.5,43.4,45.2z"/> <path fill="#F7F4F0" stroke="rgba(255,255,255,0)" style="stroke-opacity: 0;" d="M43.4,45.2c4.3-4.3,4.9-11.1,3.8-18.7L24.6,48.9C32.5,50.1,39.1,49.5,43.4,45.2z"/> <path fill="#F6F3EF" stroke="rgba(255,255,255,0)" style="stroke-opacity: 0;" d="M43.4,45.1c4.3-4.3,5-11.1,3.8-18.7L24.6,48.9C32.4,50.1,39,49.5,43.4,45.1z"/> <path fill="#F5F3EE" stroke="rgba(255,255,255,0)" style="stroke-opacity: 0;" d="M43.3,45.1c4.3-4.3,5-11,3.8-18.7L24.6,48.9C32.4,50.1,39,49.4,43.3,45.1z"/> <path fill="#F5F2EC" stroke="rgba(255,255,255,0)" style="stroke-opacity: 0;" d="M43.3,45.1c4.3-4.3,5-11,3.8-18.7L24.6,48.9C32.4,50.1,39,49.4,43.3,45.1z"/> <path fill="#F4F1EB" stroke="rgba(255,255,255,0)" style="stroke-opacity: 0;" d="M43.3,45.1c4.3-4.3,5-11,3.8-18.6L24.6,48.9C32.4,50.1,39,49.4,43.3,45.1z"/> <path fill="#F3F0EA" stroke="rgba(255,255,255,0)" style="stroke-opacity: 0;" d="M43.3,45c4.3-4.3,5-11,3.9-18.6L24.6,48.9C32.4,50.1,38.9,49.4,43.3,45z"/> <path fill="#F3EFE9" stroke="rgba(255,255,255,0)" style="stroke-opacity: 0;" d="M43.2,45c4.3-4.3,5-11,3.9-18.6L24.6,48.9C32.3,50.1,38.9,49.3,43.2,45z"/> <path fill="#F2EEE8" stroke="rgba(255,255,255,0)" style="stroke-opacity: 0;" d="M43.2,45c4.3-4.3,5-11,3.9-18.6L24.6,48.9C32.3,50.1,38.9,49.3,43.2,45z"/> <path fill="#F1EEE6" stroke="rgba(255,255,255,0)" style="stroke-opacity: 0;" d="M43.2,45c4.3-4.3,5-11,4-18.6L24.6,49C32.3,50,38.9,49.3,43.2,45z"/> <path fill="#F1EDE5" stroke="rgba(255,255,255,0)" style="stroke-opacity: 0;" d="M43.2,44.9c4.3-4.3,5.1-11,4-18.5L24.7,48.9C32.3,50,38.8,49.3,43.2,44.9z"/> <path fill="#F0ECE4" stroke="rgba(255,255,255,0)" style="stroke-opacity: 0;" d="M43.1,44.9c4.3-4.3,5.1-11,4-18.5L24.6,48.9C32.3,50,38.8,49.2,43.1,44.9z"/> <path fill="#EFEBE3" stroke="rgba(255,255,255,0)" style="stroke-opacity: 0;" d="M43.1,44.9c4.3-4.3,5.1-11,4-18.5L24.6,48.9C32.2,50,38.8,49.2,43.1,44.9z"/> <path fill="#EFEAE2" stroke="rgba(255,255,255,0)" style="stroke-opacity: 0;" d="M43.1,44.9c4.3-4.3,5.1-11,4-18.5L24.6,48.9C32.2,50,38.8,49.2,43.1,44.9z"/> <path fill="#EEE9E0" stroke="rgba(255,255,255,0)" style="stroke-opacity: 0;" d="M43.1,44.8c4.3-4.3,5.1-10.9,4.1-18.4L24.6,48.9C32.2,50,38.8,49.2,43.1,44.8z"/> <path fill="#EDE9DF" stroke="rgba(255,255,255,0)" style="stroke-opacity: 0;" d="M43,44.8c4.3-4.3,5.2-10.9,4.1-18.4L24.6,48.9C32.2,50,38.7,49.1,43,44.8z"/> <path fill="#EDE8DE" stroke="rgba(255,255,255,0)" style="stroke-opacity: 0;" d="M43,44.8c4.3-4.3,5.2-10.9,4.1-18.4L24.6,48.9C32.2,50,38.7,49.1,43,44.8z"/> <path fill="#ECE7DD" stroke="rgba(255,255,255,0)" style="stroke-opacity: 0;" d="M43,44.8c4.3-4.3,5.2-10.9,4.1-18.4L24.6,48.9C32.2,50,38.7,49.1,43,44.8z"/> <path fill="#EBE6DC" stroke="rgba(255,255,255,0)" style="stroke-opacity: 0;" d="M43,44.8c4.3-4.3,5.2-10.9,4.2-18.3L24.7,48.9C32.1,50,38.7,49.1,43,44.8z"/> <path fill="#EBE5DA" stroke="rgba(255,255,255,0)" style="stroke-opacity: 0;" d="M43,44.7c4.3-4.3,5.2-10.9,4.2-18.3L24.6,48.9C32.1,50,38.6,49,43,44.7z"/> <path fill="#EAE4D9" stroke="rgba(255,255,255,0)" style="stroke-opacity: 0;" d="M42.9,44.7c4.3-4.3,5.2-10.9,4.2-18.3L24.6,48.9C32.1,50,38.6,49,42.9,44.7z"/> <path fill="#E9E4D8" stroke="rgba(255,255,255,0)" style="stroke-opacity: 0;" d="M42.9,44.7c4.3-4.3,5.2-10.9,4.2-18.3L24.6,48.9C32.1,50,38.6,49,42.9,44.7z"/> <path fill="#E9E3D7" stroke="rgba(255,255,255,0)" style="stroke-opacity: 0;" d="M42.9,44.7c4.3-4.3,5.3-10.9,4.3-18.2L24.6,48.9C32.1,50,38.5,49,42.9,44.7z"/> <path fill="#E8E2D6" stroke="rgba(255,255,255,0)" style="stroke-opacity: 0;" d="M42.8,44.6c4.3-4.3,5.3-10.9,4.3-18.2L24.6,48.9C32,50,38.5,49,42.8,44.6z"/> <path fill="#E7E1D5" stroke="rgba(255,255,255,0)" style="stroke-opacity: 0;" d="M42.8,44.6c4.3-4.3,5.3-10.8,4.3-18.2L24.6,48.9C32,50,38.5,48.9,42.8,44.6z"/> <path fill="#E7E0D4" stroke="rgba(255,255,255,0)" style="stroke-opacity: 0;" d="M42.8,44.6c4.3-4.3,5.3-10.8,4.3-18.2L24.6,48.9C32,50,38.5,48.9,42.8,44.6z"/> <path fill="#E6E0D2" stroke="rgba(255,255,255,0)" style="stroke-opacity: 0;" d="M42.8,44.5c4.3-4.3,5.3-10.8,4.4-18.1L24.6,48.9C32,50,38.5,48.9,42.8,44.5z"/> <path fill="#E5DFD1" stroke="rgba(255,255,255,0)" style="stroke-opacity: 0;" d="M42.8,44.5c4.3-4.3,5.3-10.8,4.4-18.1L24.6,48.9C32,50,38.4,48.8,42.8,44.5z"/> <path fill="#E5DED0" stroke="rgba(255,255,255,0)" style="stroke-opacity: 0;" d="M42.7,44.5c4.3-4.3,5.3-10.8,4.4-18.1L24.6,48.9C32,50,38.4,48.8,42.7,44.5z"/> <path fill="#E4DDCF" stroke="rgba(255,255,255,0)" style="stroke-opacity: 0;" d="M42.7,44.5c4.3-4.3,5.4-10.8,4.4-18.1L24.6,48.9C31.9,50,38.4,48.8,42.7,44.5z"/> <path fill="#E3DCCE" stroke="rgba(255,255,255,0)" style="stroke-opacity: 0;" d="M42.7,44.5c4.3-4.3,5.4-10.8,4.5-18L24.6,49C31.9,50,38.4,48.8,42.7,44.5z"/> <path fill="#E3DCCD" stroke="rgba(255,255,255,0)" style="stroke-opacity: 0;" d="M42.7,44.4c4.3-4.3,5.4-10.8,4.5-18L24.6,48.9C31.9,50,38.3,48.8,42.7,44.4z"/> <path fill="#E2DBCC" stroke="rgba(255,255,255,0)" style="stroke-opacity: 0;" d="M42.6,44.4c4.3-4.3,5.4-10.8,4.5-18L24.6,48.9C31.9,49.9,38.3,48.7,42.6,44.4z"/> <path fill="#E1DACB" stroke="rgba(255,255,255,0)" style="stroke-opacity: 0;" d="M42.6,44.4c4.3-4.3,5.4-10.8,4.5-18L24.6,48.9C31.9,49.9,38.3,48.7,42.6,44.4z"/> <path fill="#E1D9C9" stroke="rgba(255,255,255,0)" style="stroke-opacity: 0;" d="M42.6,44.4c4.3-4.4,5.4-10.8,4.6-17.9L24.6,48.9C31.8,49.9,38.3,48.7,42.6,44.4z"/> <path fill="#E0D8C8" stroke="rgba(255,255,255,0)" style="stroke-opacity: 0;" d="M42.6,44.3c4.3-4.3,5.4-10.7,4.6-17.9L24.6,48.9C31.8,49.9,38.2,48.7,42.6,44.3z"/> <path fill="#DFD8C7" stroke="rgba(255,255,255,0)" style="stroke-opacity: 0;" d="M42.5,44.3c4.3-4.3,5.5-10.7,4.6-17.9L24.6,48.9C31.8,49.9,38.2,48.6,42.5,44.3z"/> <path fill="#DFD7C6" stroke="rgba(255,255,255,0)" style="stroke-opacity: 0;" d="M42.5,44.3c4.3-4.3,5.5-10.7,4.6-17.9L24.6,48.9C31.8,49.9,38.2,48.6,42.5,44.3z"/> <path fill="#DED6C5" stroke="rgba(255,255,255,0)" style="stroke-opacity: 0;" d="M42.5,44.3c4.3-4.3,5.5-10.7,4.7-17.8L24.6,48.9C31.8,49.9,38.2,48.6,42.5,44.3z"/> <path fill="#DDD5C4" stroke="rgba(255,255,255,0)" style="stroke-opacity: 0;" d="M42.5,44.2c4.3-4.3,5.5-10.7,4.7-17.8L24.6,48.9C31.8,49.9,38.1,48.6,42.5,44.2z"/> <path fill="#DDD4C3" stroke="rgba(255,255,255,0)" style="stroke-opacity: 0;" d="M42.4,44.2c4.3-4.3,5.5-10.7,4.7-17.8L24.6,48.9C31.7,49.9,38.1,48.5,42.4,44.2z"/> <path fill="#DCD4C1" stroke="rgba(255,255,255,0)" style="stroke-opacity: 0;" d="M42.4,44.2c4.3-4.3,5.6-10.7,4.7-17.8L24.6,48.9C31.7,49.9,38.1,48.5,42.4,44.2z"/> <path fill="#DCD3C0" stroke="rgba(255,255,255,0)" style="stroke-opacity: 0;" d="M42.4,44.2c4.3-4.3,5.6-10.7,4.8-17.7L24.6,48.9C31.7,49.9,38.1,48.5,42.4,44.2z"/> <path fill="#DBD2BF" stroke="rgba(255,255,255,0)" style="stroke-opacity: 0;" d="M42.4,44.1c4.3-4.3,5.6-10.7,4.8-17.7L24.6,48.9C31.7,49.9,38,48.5,42.4,44.1z"/> <path fill="#DAD1BE" stroke="rgba(255,255,255,0)" style="stroke-opacity: 0;" d="M42.3,44.1c4.3-4.3,5.6-10.7,4.8-17.7L24.6,48.9C31.7,49.9,38,48.4,42.3,44.1z"/> <path fill="#DAD1BD" stroke="rgba(255,255,255,0)" style="stroke-opacity: 0;" d="M42.3,44.1c4.3-4.3,5.6-10.6,4.8-17.7L24.6,48.9C31.6,49.9,38,48.4,42.3,44.1z"/> <path fill="#D9D0BC" stroke="rgba(255,255,255,0)" style="stroke-opacity: 0;" d="M42.3,44.1c4.3-4.3,5.6-10.6,4.8-17.7L24.6,48.9C31.6,49.9,38,48.4,42.3,44.1z"/> <path fill="#D8CFBB" stroke="rgba(255,255,255,0)" style="stroke-opacity: 0;" d="M42.3,44c4.3-4.3,5.7-10.6,4.9-17.6L24.6,48.9C31.6,49.9,37.9,48.4,42.3,44z"/> <path fill="#D8CEBA" stroke="rgba(255,255,255,0)" style="stroke-opacity: 0;" d="M42.2,44c4.3-4.3,5.7-10.6,4.9-17.6L24.6,48.9C31.6,49.9,37.9,48.3,42.2,44z"/> <path fill="#D7CEB8" stroke="rgba(255,255,255,0)" style="stroke-opacity: 0;" d="M42.2,44c4.3-4.3,5.7-10.6,4.9-17.6L24.6,48.9C31.6,49.9,37.9,48.3,42.2,44z"/> <path fill="#D7CDB7" stroke="rgba(255,255,255,0)" style="stroke-opacity: 0;" d="M42.2,44c4.3-4.3,5.7-10.6,5-17.6L24.6,49C31.5,49.9,37.9,48.3,42.2,44z"/> <path fill="#D6CCB6" stroke="rgba(255,255,255,0)" style="stroke-opacity: 0;" d="M42.2,43.9c4.3-4.3,5.7-10.6,5-17.5L24.7,48.9C31.5,49.8,37.8,48.3,42.2,43.9z"/> <path fill="#D5CBB5" stroke="rgba(255,255,255,0)" style="stroke-opacity: 0;" d="M42.1,43.9c4.3-4.3,5.7-10.6,5-17.5L24.6,48.9C31.5,49.8,37.8,48.2,42.1,43.9z"/> <path fill="#D5CBB4" stroke="rgba(255,255,255,0)" style="stroke-opacity: 0;" d="M42.1,43.9c4.3-4.3,5.7-10.6,5-17.5L24.6,48.9C31.5,49.8,37.8,48.2,42.1,43.9z"/> <path fill="#D4CAB3" stroke="rgba(255,255,255,0)" style="stroke-opacity: 0;" d="M42.1,43.9c4.3-4.3,5.8-10.6,5-17.5L24.6,48.9C31.5,49.8,37.8,48.2,42.1,43.9z"/> <path fill="#D4C9B2" stroke="rgba(255,255,255,0)" style="stroke-opacity: 0;" d="M42.1,43.8c4.3-4.3,5.8-10.5,5.1-17.4L24.6,48.9C31.5,49.8,37.8,48.2,42.1,43.8z"/> <path fill="#D3C8B1" stroke="rgba(255,255,255,0)" style="stroke-opacity: 0;" d="M42,43.8c4.3-4.3,5.8-10.5,5.1-17.4L24.6,48.9C31.4,49.8,37.7,48.2,42,43.8z"/> <path fill="#D2C8B0" stroke="rgba(255,255,255,0)" style="stroke-opacity: 0;" d="M42,43.8c4.3-4.3,5.8-10.5,5.1-17.4L24.6,48.9C31.4,49.8,37.7,48.1,42,43.8z"/> <path fill="#D2C7AF" stroke="rgba(255,255,255,0)" style="stroke-opacity: 0;" d="M42,43.8c4.3-4.3,5.8-10.5,5.1-17.4L24.6,48.9C31.4,49.8,37.7,48.1,42,43.8z"/> <path fill="#D1C6AD" stroke="rgba(255,255,255,0)" style="stroke-opacity: 0;" d="M42,43.8c4.3-4.3,5.8-10.5,5.2-17.3L24.7,48.9C31.4,49.8,37.7,48.1,42,43.8z"/> <path fill="#D1C5AC" stroke="rgba(255,255,255,0)" style="stroke-opacity: 0;" d="M42,43.7c4.3-4.3,5.8-10.5,5.2-17.3L24.6,48.9C31.4,49.8,37.6,48,42,43.7z"/> <path fill="#D0C5AB" stroke="rgba(255,255,255,0)" style="stroke-opacity: 0;" d="M41.9,43.7c4.3-4.3,5.9-10.5,5.2-17.3L24.6,48.9C31.3,49.8,37.6,48,41.9,43.7z"/> <path fill="#CFC4AA" stroke="rgba(255,255,255,0)" style="stroke-opacity: 0;" d="M41.9,43.7c4.3-4.3,5.9-10.5,5.2-17.3L24.6,48.9C31.3,49.8,37.6,48,41.9,43.7z"/> <path fill="#CFC3A9" stroke="rgba(255,255,255,0)" style="stroke-opacity: 0;" d="M41.9,43.7c4.3-4.3,5.9-10.5,5.3-17.2L24.6,48.9C31.3,49.8,37.5,48,41.9,43.7z"/> <path fill="#CEC2A8" stroke="rgba(255,255,255,0)" style="stroke-opacity: 0;" d="M41.8,43.6c4.3-4.3,5.9-10.5,5.3-17.2L24.6,48.9C31.3,49.8,37.5,48,41.8,43.6z"/> <path fill="#CEC2A7" stroke="rgba(255,255,255,0)" style="stroke-opacity: 0;" d="M41.8,43.6c4.3-4.3,5.9-10.5,5.3-17.2L24.6,48.9C31.3,49.8,37.5,47.9,41.8,43.6z"/> <path fill="#CDC1A6" stroke="rgba(255,255,255,0)" style="stroke-opacity: 0;" d="M41.8,43.6c4.3-4.3,5.9-10.5,5.3-17.2L24.6,48.9C31.2,49.8,37.5,47.9,41.8,43.6z"/> <path fill="#CCC0A5" stroke="rgba(255,255,255,0)" style="stroke-opacity: 0;" d="M41.8,43.5c4.3-4.3,6-10.4,5.4-17.1L24.6,48.9C31.2,49.8,37.5,47.9,41.8,43.5z"/> <path fill="#CCBFA4" stroke="rgba(255,255,255,0)" style="stroke-opacity: 0;" d="M41.8,43.5c4.3-4.3,6-10.4,5.4-17.1L24.6,48.9C30.9,49.9,37.2,47.9,41.8,43.5z"/> <path fill="#CBBFA3" stroke="rgba(255,255,255,0)" style="stroke-opacity: 0;" d="M41.7,43.5c4.3-4.3,6-10.4,5.4-17.1L24.6,48.9C30.9,49.9,37.2,47.9,41.7,43.5z"/> <path fill="#CBBEA2" stroke="rgba(255,255,255,0)" style="stroke-opacity: 0;" d="M41.7,43.5c4.3-4.3,6-10.4,5.4-17.1L24.6,48.9C30.9,49.9,37.2,47.9,41.7,43.5z"/> <path fill="#CABDA1" stroke="rgba(255,255,255,0)" style="stroke-opacity: 0;" d="M41.7,43.5c4.3-4.3,6-10.4,5.5-17L24.6,49C30.9,49.9,37.2,47.9,41.7,43.5z"/> <path fill="#C9BDA0" stroke="rgba(255,255,255,0)" style="stroke-opacity: 0;" d="M41.7,43.4c4.3-4.3,6-10.4,5.5-17L24.6,48.9C30.9,49.9,37.2,47.8,41.7,43.4z"/> <path fill="#C9BC9E" stroke="rgba(255,255,255,0)" style="stroke-opacity: 0;" d="M41.6,43.4c4.3-4.3,6-10.4,5.5-17L24.6,48.9C30.9,49.8,37.1,47.8,41.6,43.4z"/> <path fill="#C8BB9D" stroke="rgba(255,255,255,0)" style="stroke-opacity: 0;" d="M41.6,43.4c4.3-4.3,6.1-10.4,5.5-17L24.6,48.9C30.8,49.8,37.1,47.8,41.6,43.4z"/> <path fill="#C8BA9C" stroke="rgba(255,255,255,0)" style="stroke-opacity: 0;" d="M41.6,43.4c4.3-4.4,6.1-10.4,5.6-16.9L24.6,48.9C30.8,49.8,37.1,47.7,41.6,43.4z"/> <path fill="#C7BA9B" stroke="rgba(255,255,255,0)" style="stroke-opacity: 0;" d="M41.6,43.3c4.3-4.3,6.1-10.3,5.6-16.9L24.6,48.9C30.8,49.8,37.1,47.7,41.6,43.3z"/> <path fill="#C6B99A" stroke="rgba(255,255,255,0)" style="stroke-opacity: 0;" d="M41.5,43.3c4.3-4.3,6.1-10.3,5.6-16.9L24.6,48.9C30.8,49.8,37.1,47.7,41.5,43.3z"/> <path fill="#C6B899" stroke="rgba(255,255,255,0)" style="stroke-opacity: 0;" d="M41.5,43.3c4.3-4.3,6.1-10.3,5.6-16.9L24.6,48.9C30.8,49.8,37.1,47.7,41.5,43.3z"/> <path fill="#C5B798" stroke="rgba(255,255,255,0)" style="stroke-opacity: 0;" d="M41.5,43.3c4.3-4.3,6.1-10.3,5.7-16.8L24.6,48.9C30.8,49.7,37.1,47.7,41.5,43.3z"/> <path fill="#C4B797" stroke="rgba(255,255,255,0)" style="stroke-opacity: 0;" d="M41.5,43.2c4.3-4.3,6.2-10.3,5.7-16.8L24.6,48.9C30.8,49.7,37,47.6,41.5,43.2z"/> <path fill="#C4B696" stroke="rgba(255,255,255,0)" style="stroke-opacity: 0;" d="M41.4,43.2c4.3-4.3,6.2-10.3,5.7-16.8L24.6,48.9C30.8,49.7,37,47.6,41.4,43.2z"/> <path fill="#C3B595" stroke="rgba(255,255,255,0)" style="stroke-opacity: 0;" d="M41.4,43.2c4.3-4.3,6.2-10.3,5.7-16.8L24.6,48.9C30.8,49.7,37,47.6,41.4,43.2z"/> <path fill="#C3B594" stroke="rgba(255,255,255,0)" style="stroke-opacity: 0;" d="M41.4,43.2c4.3-4.3,6.2-10.3,5.8-16.8L24.6,48.9C30.8,49.7,37,47.6,41.4,43.2z"/> <path fill="#C2B493" stroke="rgba(255,255,255,0)" style="stroke-opacity: 0;" d="M41.4,43.1c4.3-4.3,6.2-10.3,5.8-16.7L24.6,48.9C30.8,49.7,37,47.5,41.4,43.1z"/> <path fill="#C1B392" stroke="rgba(255,255,255,0)" style="stroke-opacity: 0;" d="M41.3,43.1c4.3-4.3,6.2-10.3,5.8-16.7L24.6,48.9C30.8,49.7,37,47.5,41.3,43.1z"/> <path fill="#C1B291" stroke="rgba(255,255,255,0)" style="stroke-opacity: 0;" d="M41.3,43.1c4.3-4.3,6.2-10.3,5.8-16.7L24.6,48.9C30.8,49.7,37,47.5,41.3,43.1z"/> <path fill="#C0B290" stroke="rgba(255,255,255,0)" style="stroke-opacity: 0;" d="M41.3,43.1c4.3-4.4,6.4-10.5,5.8-16.7L24.6,48.9C30.8,49.6,36.9,47.5,41.3,43.1z"/> <path fill="#C0B18F" stroke="rgba(255,255,255,0)" style="stroke-opacity: 0;" d="M41.3,43c4.3-4.4,6.4-10.5,5.9-16.6L24.6,48.9C30.8,49.6,36.9,47.4,41.3,43z"/> <path fill="#BFB08E" stroke="rgba(255,255,255,0)" style="stroke-opacity: 0;" d="M41.2,43c4.3-4.4,6.4-10.5,5.9-16.6L24.6,48.9C30.8,49.6,36.9,47.4,41.2,43z"/> <path fill="#BEB08D" stroke="rgba(255,255,255,0)" style="stroke-opacity: 0;" d="M41.2,43c4.3-4.4,6.5-10.5,5.9-16.6L24.6,48.9C30.8,49.6,36.9,47.4,41.2,43z"/> <path fill="#BEAF8C" stroke="rgba(255,255,255,0)" style="stroke-opacity: 0;" d="M41.2,43c4.3-4.4,6.5-10.4,5.9-16.6L24.6,49C30.8,49.6,36.9,47.4,41.2,43z"/> <path fill="#BDAE8B" stroke="rgba(255,255,255,0)" style="stroke-opacity: 0;" d="M41.2,43c4.3-4.4,6.5-10.4,6-16.5L24.7,48.9C30.8,49.6,36.9,47.4,41.2,43z"/> <path fill="#BDAE8A" stroke="rgba(255,255,255,0)" style="stroke-opacity: 0;" d="M41.2,42.9c4.3-4.4,6.5-10.4,6-16.5L24.7,48.9C30.8,49.5,36.9,47.3,41.2,42.9z"/> <path fill="#BCAD89" stroke="rgba(255,255,255,0)" style="stroke-opacity: 0;" d="M41.1,42.9c4.3-4.4,6.5-10.4,6-16.5L24.6,48.9C30.8,49.5,36.8,47.3,41.1,42.9z"/> <path fill="#BCAC88" stroke="rgba(255,255,255,0)" style="stroke-opacity: 0;" d="M41.1,42.9c4.3-4.4,6.5-10.4,6-16.5L24.6,48.9C30.7,49.5,36.8,47.3,41.1,42.9z"/> <path fill="#BBAB87" stroke="rgba(255,255,255,0)" style="stroke-opacity: 0;" d="M41.1,42.8c4.3-4.3,6.5-10.3,6.1-16.4L24.6,48.9C30.8,49.5,36.8,47.3,41.1,42.8z"/> <path fill="#BAAB86" stroke="rgba(255,255,255,0)" style="stroke-opacity: 0;" d="M41,42.8c4.3-4.3,6.5-10.3,6.1-16.4L24.6,48.9C30.7,49.5,36.7,47.2,41,42.8z"/> <path fill="#BAAA85" stroke="rgba(255,255,255,0)" style="stroke-opacity: 0;" d="M41,42.8c4.3-4.3,6.5-10.3,6.1-16.4L24.6,48.9C30.7,49.5,36.8,47.2,41,42.8z"/> <path fill="#B9A984" stroke="rgba(255,255,255,0)" style="stroke-opacity: 0;" d="M41,42.8c4.3-4.3,6.5-10.3,6.1-16.4L24.6,48.9C30.6,49.6,36.7,47.1,41,42.8z"/> <path fill="#B9A983" stroke="rgba(255,255,255,0)" style="stroke-opacity: 0;" d="M41,42.8c4.3-4.3,6.5-10.3,6.2-16.3L24.7,48.9C30.6,49.6,36.7,47.1,41,42.8z"/> <path fill="#B8A882" stroke="rgba(255,255,255,0)" style="stroke-opacity: 0;" d="M41,42.7c4.3-4.3,6.6-10.2,6.2-16.3L24.7,48.9C30.6,49.6,36.6,47,41,42.7z"/> <path fill="#B8A781" stroke="rgba(255,255,255,0)" style="stroke-opacity: 0;" d="M40.9,42.7c4.3-4.3,6.6-10.2,6.2-16.3L24.6,48.9C30.6,49.6,36.6,47,40.9,42.7z"/> <path fill="#B7A780" stroke="rgba(255,255,255,0)" style="stroke-opacity: 0;" d="M40.9,42.7c4.3-4.3,6.6-10.2,6.2-16.3L24.6,48.9C30.6,49.6,36.6,47,40.9,42.7z"/> <path fill="#B7A67F" stroke="rgba(255,255,255,0)" style="stroke-opacity: 0;" d="M40.9,42.7c4.3-4.3,6.6-10.2,6.3-16.2L24.6,48.9C30.5,49.6,36.6,47,40.9,42.7z"/> <path fill="#B6A57E" stroke="rgba(255,255,255,0)" style="stroke-opacity: 0;" d="M40.8,42.6c4.3-4.3,6.6-10.2,6.3-16.2L24.6,48.9C30.5,49.6,36.5,47,40.8,42.6z"/> <path fill="#B5A57D" stroke="rgba(255,255,255,0)" style="stroke-opacity: 0;" d="M40.8,42.6c4.3-4.3,6.6-10.1,6.3-16.2L24.6,48.9C30.5,49.6,36.5,46.9,40.8,42.6z"/> <path fill="#B5A47C" stroke="rgba(255,255,255,0)" style="stroke-opacity: 0;" d="M40.8,42.6c4.3-4.3,6.6-10.1,6.3-16.2L24.6,48.9C30.5,49.6,36.5,46.9,40.8,42.6z"/> <path fill="#B4A37B" stroke="rgba(255,255,255,0)" style="stroke-opacity: 0;" d="M40.8,42.6c4.3-4.2,6.6-10.1,6.4-16.1L24.6,48.9C30.5,49.6,36.5,46.9,40.8,42.6z"/> <path fill="#B4A37A" stroke="rgba(255,255,255,0)" style="stroke-opacity: 0;" d="M40.8,42.5c4.3-4.2,6.6-10.1,6.4-16.1L24.6,48.9C30.5,49.6,36.4,46.9,40.8,42.5z"/> <path fill="#B3A279" stroke="rgba(255,255,255,0)" style="stroke-opacity: 0;" d="M40.7,42.5c4.3-4.2,6.6-10.1,6.4-16.1L24.6,48.9C30.4,49.6,36.4,46.8,40.7,42.5z"/> <path fill="#B3A178" stroke="rgba(255,255,255,0)" style="stroke-opacity: 0;" d="M40.7,42.5c4.3-4.2,6.6-10,6.4-16.1L24.6,48.9C30.4,49.6,36.4,46.8,40.7,42.5z"/> <path fill="#B2A177" stroke="rgba(255,255,255,0)" style="stroke-opacity: 0;" d="M40.7,42.5c4.3-4.2,6.6-10,6.5-16L24.6,49C30.4,49.6,36.4,46.8,40.7,42.5z"/> <path fill="#B2A076" stroke="rgba(255,255,255,0)" style="stroke-opacity: 0;" d="M40.7,42.4c4.3-4.2,6.6-10,6.5-16L24.6,48.9C30.4,49.6,36.3,46.8,40.7,42.4z"/> <path fill="#B19F75" stroke="rgba(255,255,255,0)" style="stroke-opacity: 0;" d="M40.6,42.4c4.3-4.2,6.7-10,6.5-16L24.6,48.9C30.4,49.5,36.3,46.7,40.6,42.4z"/> <path fill="#B09E74" stroke="rgba(255,255,255,0)" style="stroke-opacity: 0;" d="M40.6,42.4c4.3-4.2,6.7-10,6.5-16L24.6,48.9C30.3,49.5,36.3,46.7,40.6,42.4z"/> <path fill="#B09E73" stroke="rgba(255,255,255,0)" style="stroke-opacity: 0;" d="M40.6,42.4c4.3-4.2,6.7-9.9,6.5-15.9L24.6,48.9C30.3,49.5,36.3,46.7,40.6,42.4z"/> <path fill="#AF9D72" stroke="rgba(255,255,255,0)" style="stroke-opacity: 0;" d="M40.6,42.3c4.3-4.2,6.7-9.9,6.6-15.9L24.6,48.9C30.3,49.5,36.2,46.7,40.6,42.3z"/> <path fill="#AF9C71" stroke="rgba(255,255,255,0)" style="stroke-opacity: 0;" d="M40.5,42.3c4.3-4.2,6.7-9.9,6.6-15.9L24.6,48.9C30.3,49.5,36.2,46.6,40.5,42.3z"/> <path fill="#AE9C70" stroke="rgba(255,255,255,0)" style="stroke-opacity: 0;" d="M40.5,42.3c4.3-4.2,6.7-9.9,6.6-15.9L24.6,48.9C30.3,49.5,36.2,46.6,40.5,42.3z"/> <path fill="#AE9B6F" stroke="rgba(255,255,255,0)" style="stroke-opacity: 0;" d="M40.5,42.3c4.3-4.1,6.7-9.9,6.7-15.9L24.6,48.9C30.2,49.5,36.2,46.6,40.5,42.3z"/> <path fill="#AD9B6E" stroke="rgba(255,255,255,0)" style="stroke-opacity: 0;" d="M40.5,42.2c4.3-4.1,6.7-9.9,6.7-15.8L24.6,48.9C30.2,49.5,36.1,46.6,40.5,42.2z"/> <path fill="#AD9A6D" stroke="rgba(255,255,255,0)" style="stroke-opacity: 0;" d="M40.4,42.2c4.3-4.1,6.7-9.8,6.7-15.8L24.6,48.9C30.2,49.5,36.1,46.5,40.4,42.2z"/> <path fill="#AC996C" stroke="rgba(255,255,255,0)" style="stroke-opacity: 0;" d="M40.4,42.2c4.3-4.1,6.7-9.8,6.7-15.8L24.6,48.9C30.2,49.5,36.1,46.5,40.4,42.2z"/> <path fill="#AB996B" stroke="rgba(255,255,255,0)" style="stroke-opacity: 0;" d="M40.4,42.2c4.3-4.1,6.7-9.8,6.8-15.8L24.6,48.9C30.2,49.5,36.1,46.5,40.4,42.2z"/> <path fill="#AB986A" stroke="rgba(255,255,255,0)" style="stroke-opacity: 0;" d="M40.4,42.1c4.3-4.1,6.7-9.8,6.8-15.7L24.6,48.9C30.1,49.5,36,46.5,40.4,42.1z"/> <path fill="#AA9769" stroke="rgba(255,255,255,0)" style="stroke-opacity: 0;" d="M40.3,42.1c4.3-4.1,6.8-9.8,6.8-15.7L24.6,48.9C30.1,49.5,36,46.4,40.3,42.1z"/> <path fill="#AA9768" stroke="rgba(255,255,255,0)" style="stroke-opacity: 0;" d="M40.3,42.1c4.3-4.1,6.8-9.7,6.8-15.7L24.6,48.9C30.1,49.5,36,46.4,40.3,42.1z"/> <path fill="#A99667" stroke="rgba(255,255,255,0)" style="stroke-opacity: 0;" d="M40.3,42.1c4.3-4.1,6.8-9.7,6.8-15.7L24.6,48.9C30.1,49.5,36,46.4,40.3,42.1z"/> <path fill="#A99566" stroke="rgba(255,255,255,0)" style="stroke-opacity: 0;" d="M40.3,42c4.3-4.1,6.8-9.7,6.9-15.6L24.6,48.9C30.1,49.5,36,46.4,40.3,42z"/> <path fill="#A89565" stroke="rgba(255,255,255,0)" style="stroke-opacity: 0;" d="M40.2,42c4.3-4.1,6.8-9.7,6.9-15.6L24.6,48.9C30.1,49.5,35.9,46.3,40.2,42z"/> <path fill="#A79464" stroke="rgba(255,255,255,0)" style="stroke-opacity: 0;" d="M40.2,42c4.3-4.3,7-9.8,6.9-15.6L24.6,48.9C30,49.5,35.9,46.3,40.2,42z"/> <path fill="#A79363" stroke="rgba(255,255,255,0)" style="stroke-opacity: 0;" d="M40.2,42c4.3-4.3,7-9.8,6.9-15.6L24.6,49C30,49.5,35.9,46.3,40.2,42z"/> <path fill="#A69362" stroke="rgba(255,255,255,0)" style="stroke-opacity: 0;" d="M40.2,42c4.3-4.3,7-9.8,7-15.5L24.7,48.9C30,49.5,35.8,46.3,40.2,42z"/> <path fill="#A69261" stroke="rgba(255,255,255,0)" style="stroke-opacity: 0;" d="M40.2,41.9c4.3-4.3,7-9.8,7-15.5L24.7,48.9C30,49.5,35.8,46.2,40.2,41.9z"/> <path fill="#A59160" stroke="rgba(255,255,255,0)" style="stroke-opacity: 0;" d="M40.1,41.9c4.3-4.3,7-9.8,7-15.5L24.6,48.9C30,49.5,35.8,46.2,40.1,41.9z"/> <path fill="#A5915F" stroke="rgba(255,255,255,0)" style="stroke-opacity: 0;" d="M40.1,41.9c4.3-4.3,7-9.8,7-15.5L24.6,48.9C30,49.5,35.8,46.2,40.1,41.9z"/> <path fill="#A4905F" stroke="rgba(255,255,255,0)" style="stroke-opacity: 0;" d="M40.1,41.8c4.3-4.3,7-9.8,7.1-15.4L24.6,48.9C29.9,49.4,35.8,46.2,40.1,41.8z"/> <path fill="#A48F5E" stroke="rgba(255,255,255,0)" style="stroke-opacity: 0;" d="M40,41.8c4.3-4.3,7.1-9.8,7.1-15.4L24.6,48.9C29.9,49.4,35.7,46.2,40,41.8z"/> <path fill="#A38F5D" stroke="rgba(255,255,255,0)" style="stroke-opacity: 0;" d="M40,41.8c4.3-4.3,7.1-9.8,7.1-15.4L24.6,48.9C29.9,49.4,35.7,46.1,40,41.8z"/> <path fill="#A28E5C" stroke="rgba(255,255,255,0)" style="stroke-opacity: 0;" d="M40,41.8c4.3-4.3,7.1-9.8,7.1-15.4L24.6,48.9C29.9,49.4,35.7,46.1,40,41.8z"/> <path fill="#A28E5B" stroke="rgba(255,255,255,0)" style="stroke-opacity: 0;" d="M40,41.8c4.3-4.3,7.1-9.7,7.2-15.3L24.7,48.9C29.9,49.4,35.7,46.1,40,41.8z"/> <path fill="#A18D5A" stroke="rgba(255,255,255,0)" style="stroke-opacity: 0;" d="M40,41.7c4.3-4.3,7.1-9.7,7.2-15.3L24.7,48.9C29.8,49.4,35.6,46,40,41.7z"/> <path fill="#A18C59" stroke="rgba(255,255,255,0)" style="stroke-opacity: 0;" d="M39.9,41.7c4.3-4.3,7.1-9.7,7.2-15.3L24.6,48.9C29.8,49.4,35.6,46,39.9,41.7z"/> <path fill="#A08C58" stroke="rgba(255,255,255,0)" style="stroke-opacity: 0;" d="M39.9,41.7c4.3-4.3,7.2-9.7,7.2-15.3L24.6,48.9C29.8,49.4,35.6,46,39.9,41.7z"/> <path fill="#A08B57" stroke="rgba(255,255,255,0)" style="stroke-opacity: 0;" d="M39.9,41.7c4.3-4.3,7.2-9.7,7.3-15.2L24.6,48.9C29.8,49.4,35.6,46,39.9,41.7z"/> <path fill="#9F8A56" stroke="rgba(255,255,255,0)" style="stroke-opacity: 0;" d="M39.9,41.6c4.3-4.3,7.2-9.7,7.3-15.2L24.6,48.9C29.8,49.4,35.5,46,39.9,41.6z"/> <path fill="#9E8A55" stroke="rgba(255,255,255,0)" style="stroke-opacity: 0;" d="M39.8,41.6c4.3-4.3,7.2-9.7,7.3-15.2L24.6,48.9C29.7,49.4,35.5,45.9,39.8,41.6z"/> <path fill="#9E8954" stroke="rgba(255,255,255,0)" style="stroke-opacity: 0;" d="M39.8,41.6c4.3-4.3,7.2-9.7,7.3-15.2L24.6,48.9C29.7,49.4,35.5,45.9,39.8,41.6z"/> <path fill="#9D8954" stroke="rgba(255,255,255,0)" style="stroke-opacity: 0;" d="M39.8,41.6c4.3-4.3,7.2-9.7,7.4-15.1L24.6,48.9C29.7,49.4,35.5,45.9,39.8,41.6z"/> <path fill="#9D8853" stroke="rgba(255,255,255,0)" style="stroke-opacity: 0;" d="M39.8,41.5c4.3-4.3,7.2-9.7,7.4-15.1L24.6,48.9C29.7,49.4,35.4,45.9,39.8,41.5z"/> <path fill="#9C8752" stroke="rgba(255,255,255,0)" style="stroke-opacity: 0;" d="M39.7,41.5c4.3-4.3,7.3-9.6,7.4-15.1L24.6,48.9C29.7,49.4,35.4,45.8,39.7,41.5z"/> <path fill="#9C8751" stroke="rgba(255,255,255,0)" style="stroke-opacity: 0;" d="M39.7,41.5c4.3-4.3,7.3-9.6,7.4-15.1L24.6,48.9C29.6,49.4,35.4,45.8,39.7,41.5z"/> <path fill="#9B8650" stroke="rgba(255,255,255,0)" style="stroke-opacity: 0;" d="M39.7,41.5c4.3-4.3,7.3-9.6,7.5-15L24.6,49C29.6,49.4,35.4,45.8,39.7,41.5z"/> <path fill="#9B854F" stroke="rgba(255,255,255,0)" style="stroke-opacity: 0;" d="M39.7,41.4c4.3-4.3,7.3-9.6,7.5-15L24.6,48.9C29.6,49.4,35.3,45.8,39.7,41.4z"/> <path fill="#9A854E" stroke="rgba(255,255,255,0)" style="stroke-opacity: 0;" d="M39.6,41.4c4.3-4.3,7.3-9.6,7.5-15L24.6,48.9C29.6,49.4,35.3,45.7,39.6,41.4z"/> <path fill="#99844D" stroke="rgba(255,255,255,0)" style="stroke-opacity: 0;" d="M39.6,41.4c4.3-4.3,7.3-9.6,7.5-15L24.6,48.9C29.6,49.3,35.3,45.7,39.6,41.4z"/> <path fill="#99844C" stroke="rgba(255,255,255,0)" style="stroke-opacity: 0;" d="M39.6,41.4c4.3-4.3,7.4-9.6,7.5-15L24.6,48.9C29.6,49.3,35.3,45.7,39.6,41.4z"/> <path fill="#98834C" stroke="rgba(255,255,255,0)" style="stroke-opacity: 0;" d="M39.6,41.3c4.3-4.3,7.4-9.6,7.6-14.9L24.6,48.9C29.5,49.3,35.2,45.7,39.6,41.3z"/> <path fill="#98824B" stroke="rgba(255,255,255,0)" style="stroke-opacity: 0;" d="M39.5,41.3c4.3-4.3,7.4-9.6,7.6-14.9L24.6,48.9C29.5,49.3,35.2,45.6,39.5,41.3z"/> <path fill="#97824A" stroke="rgba(255,255,255,0)" style="stroke-opacity: 0;" d="M39.5,41.3c4.3-4.3,7.4-9.6,7.6-14.9L24.6,48.9C29.5,49.3,35.2,45.6,39.5,41.3z"/> <path fill="#978149" stroke="rgba(255,255,255,0)" style="stroke-opacity: 0;" d="M39.5,41.3c4.3-4.3,7.4-9.6,7.7-14.9L24.6,48.9C29.5,49.3,35.2,45.6,39.5,41.3z"/> <path fill="#968148" stroke="rgba(255,255,255,0)" style="stroke-opacity: 0;" d="M39.5,41.2c4.3-4.3,7.4-9.5,7.7-14.8L24.6,48.9C29.5,49.3,35.1,45.6,39.5,41.2z"/> <path fill="#968047" stroke="rgba(255,255,255,0)" style="stroke-opacity: 0;" d="M39.4,41.2c4.3-4.3,7.5-9.5,7.7-14.8L24.6,48.9C29.5,49.3,35.1,45.5,39.4,41.2z"/> <path fill="#957F46" stroke="rgba(255,255,255,0)" style="stroke-opacity: 0;" d="M39.4,41.2c4.3-4.3,7.5-9.5,7.7-14.8L24.6,48.9C29.4,49.3,35.1,45.5,39.4,41.2z"/> <path fill="#947F45" stroke="rgba(255,255,255,0)" style="stroke-opacity: 0;" d="M39.4,41.2c4.3-4.3,7.5-9.5,7.7-14.8L24.6,48.9C29.4,49.3,35.1,45.5,39.4,41.2z"/> <path fill="#947E45" stroke="rgba(255,255,255,0)" style="stroke-opacity: 0;" d="M39.4,41.2c4.3-4.3,7.5-9.5,7.8-14.7L24.6,48.9C29.4,49.3,35,45.5,39.4,41.2z"/> <path fill="#937E44" stroke="rgba(255,255,255,0)" style="stroke-opacity: 0;" d="M39.3,41.1c4.3-4.3,7.5-9.5,7.8-14.7L24.6,48.9C29.4,49.3,35,45.5,39.3,41.1z"/> <path fill="#937D43" stroke="rgba(255,255,255,0)" style="stroke-opacity: 0;" d="M39.3,41.1c4.3-4.3,7.5-9.5,7.8-14.7L24.6,48.9C29.4,49.3,35,45.4,39.3,41.1z"/> <path fill="#927C42" stroke="rgba(255,255,255,0)" style="stroke-opacity: 0;" d="M39.3,41.1c4.3-4.3,7.5-9.5,7.8-14.7L24.6,48.9C29.3,49.3,35,45.4,39.3,41.1z"/> <path fill="#927C41" stroke="rgba(255,255,255,0)" style="stroke-opacity: 0;" d="M39.3,41c4.3-4.3,7.6-9.5,7.9-14.6L24.6,48.9C29.3,49.3,35,45.4,39.3,41z"/> <path fill="#917B40" stroke="rgba(255,255,255,0)" style="stroke-opacity: 0;" d="M39.2,41c4.3-4.3,7.6-9.5,7.9-14.6L24.6,48.9C29.3,49.3,34.9,45.3,39.2,41z"/> <path fill="#917B3F" stroke="rgba(255,255,255,0)" style="stroke-opacity: 0;" d="M39.2,41c4.3-4.3,7.6-9.4,7.9-14.6L24.6,48.9C29.3,49.3,34.9,45.3,39.2,41z"/> <path fill="#907A3F" stroke="rgba(255,255,255,0)" style="stroke-opacity: 0;" d="M39.2,41c4.3-4.3,7.6-9.4,7.9-14.6L24.6,48.9C29.3,49.3,34.9,45.3,39.2,41z"/> <path fill="#8F7A3E" stroke="rgba(255,255,255,0)" style="stroke-opacity: 0;" d="M39.2,41c4.3-4.3,7.6-9.4,8-14.5L24.7,49C29.2,49.3,34.8,45.3,39.2,41z"/> <path fill="#8F793D" stroke="rgba(255,255,255,0)" style="stroke-opacity: 0;" d="M39.2,40.9c4.3-4.3,7.6-9.4,8-14.5L24.7,48.9C29.2,49.3,34.8,45.2,39.2,40.9z"/> <path fill="#8E783C" stroke="rgba(255,255,255,0)" style="stroke-opacity: 0;" d="M39.1,40.9c4.3-4.3,7.7-9.4,8-14.5L24.6,48.9C29.2,49.3,34.8,45.2,39.1,40.9z"/> <path fill="#8E783B" stroke="rgba(255,255,255,0)" style="stroke-opacity: 0;" d="M39.1,40.9c4.3-4.3,7.7-9.4,8-14.5L24.6,48.9C29.2,49.2,34.8,45.2,39.1,40.9z"/> <path fill="#8D773A" stroke="rgba(255,255,255,0)" style="stroke-opacity: 0;" d="M39.1,40.8c4.3-4.3,7.7-9.4,8.1-14.4L24.6,48.9C29.2,49.2,34.8,45.2,39.1,40.8z"/> <path fill="#8D773A" stroke="rgba(255,255,255,0)" style="stroke-opacity: 0;" d="M39,40.8c4.3-4.3,7.7-9.4,8.1-14.4L24.6,48.9C29.1,49.2,34.7,45.2,39,40.8z"/> <linearGradient id="SVGID_1_" gradientUnits="userSpaceOnUse" x1="0.5791" y1="57.3949" x2="41.2991" y2="22.9949" gradientTransform="matrix(1 0 0 -1 0 63.7323)"> <stop offset="0" style="stop-color:#FFFFFF"/> <stop offset="1" style="stop-color:#9E8B59"/> </linearGradient> <path fill="url(#SVGID_1_)" stroke="rgba(255,255,255,0)" style="stroke-opacity: 0;" d="M41.3,13.4c-8.2-8.2-21.5-8.1-29.7,0.1S3.5,35,11.7,43.2c4.2,4.2,10,6.4,15.9,6.1l19.9-19.9 C47.8,23.4,45.6,17.6,41.3,13.4z"/> <path fill="#9E8B59" stroke="rgba(255,255,255,0)" style="stroke-opacity: 0;" d="M39.7,41.4c3.8-3.8,7-8.1,7.8-12.1L27.6,49.2C31.1,49,35.8,45.3,39.7,41.4z"/> <linearGradient id="SVGID_2_" gradientUnits="userSpaceOnUse" x1="-531.286" y1="566.6537" x2="-531.286" y2="539.3737" gradientTransform="matrix(0.7071 -0.7071 -0.7071 -0.7071 793.4442 43.8713)"> <stop offset="0" style="stop-color:#FAB734"/> <stop offset="0.36" style="stop-color:#F7A428"/> <stop offset="0.72" style="stop-color:#F7A629"/> <stop offset="0.84" style="stop-color:#F8AD2D"/> <stop offset="0.93" style="stop-color:#FBB835"/> <stop offset="1" style="stop-color:#FDC73E"/> </linearGradient> <path fill="url(#SVGID_2_)" stroke="rgba(255,255,255,0)" style="stroke-opacity: 0;" d="M41.1,13.6C33,5.5,19.9,5.5,11.8,13.6S3.7,34.9,11.8,43c4.2,4.1,9.9,6.3,15.7,6l19.6-19.6 C47.5,23.5,45.3,17.7,41.1,13.6z"/> <linearGradient id="SVGID_3_" gradientUnits="userSpaceOnUse" x1="39.575" y1="22.3673" x2="37.545" y2="24.3973" gradientTransform="matrix(1 0 0 -1 0 63.7323)"> <stop offset="0" style="stop-color:#F18623"/> <stop offset="0.37" style="stop-color:#F59B2C"/> <stop offset="1" style="stop-color:#FDC73E"/> </linearGradient> <path fill="url(#SVGID_3_)" stroke="rgba(255,255,255,0)" style="stroke-opacity: 0;" d="M39.5,41.2c3.8-3.8,6.9-8,7.7-11.9L27.6,49C31,48.7,35.7,45,39.5,41.2z"/> <linearGradient id="SVGID_4_" gradientUnits="userSpaceOnUse" x1="39.6086" y1="22.2509" x2="11.6286" y2="50.4309" gradientTransform="matrix(1 0 0 -1 0 63.7323)"> <stop offset="0" style="stop-color:#FFFFFF"/> <stop offset="7.000000e-02" style="stop-color:#FFFFFF"/> <stop offset="0.11" style="stop-color:#C3C2C2"/> <stop offset="0.18" style="stop-color:#D0CFCF"/> <stop offset="0.33" style="stop-color:#E5E5E5"/> <stop offset="0.5" style="stop-color:#F4F3F3"/> <stop offset="0.7" style="stop-color:#FCFCFC"/> <stop offset="1" style="stop-color:#FFFFFF"/> </linearGradient> <path fill="url(#SVGID_4_)" stroke="rgba(255,255,255,0)" style="stroke-opacity: 0;" d="M41.1,13.6C33,5.5,19.9,5.5,11.8,13.6S3.7,34.9,11.8,43c4.2,4.1,9.9,6.3,15.7,6 c3.4-0.3,8.1-4,11.9-7.8s6.9-8,7.7-11.9C47.5,23.5,45.3,17.7,41.1,13.6z M46.9,29.3c-0.9,4.3-4.7,8.8-7.6,11.7 c-2.8,2.8-7.9,7.4-11.7,7.6c-0.4,0-0.7,0-1.1,0C15.1,48.7,6,39.5,6,28.2S15.2,7.7,26.5,7.7C37.8,7.7,47,16.9,47,28.2 C47,28.6,47,29,46.9,29.3z"/> <path fill="#FEEE60" stroke="rgba(255,255,255,0)" style="stroke-opacity: 0;" d="M21.3,26.4c-0.1-0.5-0.7-0.8-1.4-0.8c-1.5-1.4-3.7-1.3-5.1,0.1c-1.4,1.5-1.3,3.7,0.1,5.1s3.7,1.3,5.1-0.1 c0.9-0.9,1.2-2.2,0.9-3.5C21.2,27.1,21.3,26.7,21.3,26.4z"/> <path fill="#FEEE60" stroke="rgba(255,255,255,0)" style="stroke-opacity: 0;" d="M28.3,26.7h-3.7c0.6,3.5-1.7,6.8-5.1,7.4s-6.8-1.7-7.4-5.1c-0.3-1.8,0.2-3.7,1.3-5.1l-3.3-1.5 c-3,4.6-1.8,10.8,2.8,13.8c4.6,3,10.8,1.8,13.8-2.8C28,31.4,28.5,29.1,28.3,26.7z"/> <path fill="#524F3F" stroke="rgba(255,255,255,0)" style="stroke-opacity: 0;" d="M31.1,26.4c0.1,0.5,0.7,0.8,1.4,0.8c1.5,1.4,3.7,1.3,5.1-0.1c1.4-1.5,1.3-3.7-0.1-5.1 c-1.5-1.4-3.7-1.3-5.1,0.1c-0.9,0.9-1.2,2.2-0.9,3.5C31.2,25.8,31.1,26.1,31.1,26.4z"/> <path fill="#524F3F" stroke="rgba(255,255,255,0)" style="stroke-opacity: 0;" d="M24.6,26.1h3.7c-0.6-3.5,1.7-6.8,5.2-7.4s6.8,1.7,7.4,5.2c0.3,1.8-0.2,3.7-1.3,5.1l3.3,1.5 c3-4.6,1.8-10.8-2.8-13.8s-10.8-1.8-13.8,2.8C25,21.5,24.4,23.8,24.6,26.1L24.6,26.1z"/></g></svg>
